<?xml version="1.0" standalone="no"?><!DOCTYPE svg PUBLIC "-//W3C//DTD SVG 1.1//EN" "http://www.w3.org/Graphics/SVG/1.1/DTD/svg11.dtd"><svg t="1621512304578" class="icon" viewBox="0 0 1024 1024" version="1.1" xmlns="http://www.w3.org/2000/svg" p-id="3577" width="16" height="16" xmlns:xlink="http://www.w3.org/1999/xlink"><defs><style type="text/css"></style></defs><path d="M544.614 512.29l171.77-171.824c8.673-8.672 8.673-22.917 0-31.642l-0.946-0.946c-8.672-8.672-22.916-8.672-31.641 0l-171.77 172.033-171.771-172.085c-8.725-8.673-22.97-8.673-31.642 0l-0.946 0.946c-8.883 8.672-8.883 22.916 0 31.642l171.823 171.875-171.823 171.77c-8.673 8.673-8.673 22.917 0 31.642l0.946 0.946c8.673 8.673 22.917 8.673 31.642 0l171.823-171.822 171.823 171.822c8.672 8.673 22.916 8.673 31.642 0l0.946-0.946c8.672-8.672 8.672-22.916 0-31.642L544.614 512.29z m0 0" p-id="3578"></path></svg>